PathFileType	4	(X/Y/Z)	C:/Users/opensim2020/Desktop/walking_exp_matlab/subject06_walking15_straight_04.trc	
DataRate	CameraRate	NumFrames	NumMarkers	Units	OrigDataRate	OrigDataStartFrame	OrigNumFrames	
100.00	100.00	7	47	mm	100.00	2901	157	
Frame#	Time	LFHD			RFHD			LBHD			RBHD			C7			T10			CLAV			STRN			RBAK			LSHO			LUPA			LELB			LFRM			LWRA			LWRB			LFIN			RSHO			RUPA			RELB			RFRM			RWRA			RWRB			RFIN			LASI			RASI			LPSI			RPSI			LTHI			LKNE			LTIB			LANK			LHEE			LTOE			RTHI			RKNE			RTIB			RANK			RHEE			RTOE			*39			*40			*41			*42			*43			*44			*45			*46			
		X1	Y1	Z1	X2	Y2	Z2	X3	Y3	Z3	X4	Y4	Z4	X5	Y5	Z5	X6	Y6	Z6	X7	Y7	Z7	X8	Y8	Z8	X9	Y9	Z9	X10	Y10	Z10	X11	Y11	Z11	X12	Y12	Z12	X13	Y13	Z13	X14	Y14	Z14	X15	Y15	Z15	X16	Y16	Z16	X17	Y17	Z17	X18	Y18	Z18	X19	Y19	Z19	X20	Y20	Z20	X21	Y21	Z21	X22	Y22	Z22	X23	Y23	Z23	X24	Y24	Z24	X25	Y25	Z25	X26	Y26	Z26	X27	Y27	Z27	X28	Y28	Z28	X29	Y29	Z29	X30	Y30	Z30	X31	Y31	Z31	X32	Y32	Z32	X33	Y33	Z33	X34	Y34	Z34	X35	Y35	Z35	X36	Y36	Z36	X37	Y37	Z37	X38	Y38	Z38	X39	Y39	Z39	X40	Y40	Z40	X41	Y41	Z41	X42	Y42	Z42	X43	Y43	Z43	X44	Y44	Z44	X45	Y45	Z45	X46	Y46	Z46	X47	Y47	Z47	

40	0.390	-927.08282	607.38147	1662.18005	-1056.54102	580.93170	1656.01660	-955.65393	737.28748	1607.20178	-1081.83813	709.23145	1606.19702	-1003.49945	726.02979	1450.59094	-1008.49847	753.71112	1120.93250	-998.49677	613.55084	1376.96533	-989.48712	568.85718	1205.39478	-1082.29126	792.72949	1278.28357	-839.77643	675.00067	1407.83386	-765.76770	661.24707	1206.90381	-754.09216	649.60236	1094.40344	-737.65784	565.68549	970.20203	-786.12915	457.79944	905.08362	-749.50891	505.96979	867.70709	-752.85541	428.10846	821.38062	-1161.92371	654.10010	1405.89343	-1250.76599	700.60730	1210.55920	-1263.59827	698.81451	1088.35620	-1279.69873	680.86298	969.46875	-1245.47168	615.01471	832.94067	-1287.02588	669.79120	832.44995	-1285.86353	631.76843	756.57379	-895.71509	581.20300	961.62061	-1115.32544	564.61920	977.83716	-933.99451	736.75116	984.96783	-1100.34900	718.66626	997.69458	-844.06592	647.59296	637.18689	-857.90527	636.45593	474.32852	-874.19440	829.88593	321.69199	-915.21063	960.52838	214.25964	-966.69159	987.73956	234.17308	-903.82385	915.25055	74.53252	-1178.81531	587.35809	642.94891	-1151.14832	567.86816	519.66925	-1152.39319	596.88300	252.61090	-1103.09619	603.56189	67.45986	-1058.46436	642.09814	43.16212	-1102.22412	449.84723	33.05674	-1004.10419	693.87378	1702.59009																					 
41	0.400	-927.97534	596.76471	1662.61389	-1057.45715	570.27686	1656.64587	-956.60364	726.69025	1607.97119	-1083.08362	699.00415	1607.24658	-1004.97198	715.85004	1451.38098	-1010.36255	743.88422	1121.75049	-999.67743	603.54102	1377.42334	-990.80768	559.36005	1205.76306	-1084.68481	782.44446	1279.01770	-840.97510	665.44696	1407.84814	-767.84198	653.28839	1206.32654	-756.09625	642.62463	1093.62488	-739.20679	561.56525	967.15198	-786.90930	455.28348	898.75916	-750.81256	505.05911	862.81122	-753.30426	428.64056	814.20355	-1163.30762	643.14594	1406.56946	-1252.81958	688.37463	1211.07385	-1265.90649	685.68781	1088.90820	-1281.55933	665.03552	970.48126	-1245.87195	596.47186	835.56030	-1288.21460	650.91882	833.84875	-1286.52344	610.64270	758.97729	-897.03229	571.38043	962.44995	-1116.75793	555.24146	978.43341	-935.05963	727.07428	985.49847	-1101.52698	709.37842	998.33325	-844.94617	633.10016	638.34198	-858.46136	618.26300	475.97220	-876.07190	811.01270	324.63486	-917.33508	941.27191	216.58716	-968.83069	969.08575	236.05020	-905.28235	894.11841	77.77309	-1180.03271	580.55634	642.84705	-1152.29993	562.60034	519.32489	-1153.12097	594.37329	252.38728	-1103.18323	603.42731	67.44519	-1058.57837	642.10156	43.21534	-1102.36536	449.71198	32.81786	-1004.94720	683.22406	1703.37952																					 
42	0.410	-928.79657	586.10828	1663.04370	-1058.30725	559.65674	1657.18152	-957.57367	716.23853	1608.74573	-1083.96558	688.48535	1608.13965	-1006.37750	705.69244	1452.12122	-1012.14063	734.24072	1122.53833	-1000.83777	593.54498	1377.84753	-992.08179	549.87415	1206.07288	-1086.95496	772.36902	1279.92175	-842.19568	655.98010	1407.94373	-769.87427	645.20325	1205.93213	-758.41846	635.49255	1092.99561	-741.07281	557.90271	964.21899	-787.70789	453.48792	892.34204	-751.77032	504.95172	858.16083	-753.53217	429.81918	807.19781	-1164.56543	632.23413	1407.23706	-1254.77417	676.10376	1211.56567	-1268.19507	672.08362	1089.54993	-1283.30298	649.10657	971.55225	-1246.38733	578.09009	838.62744	-1289.29663	631.94940	835.41522	-1287.42188	589.81909	761.74127	-898.43225	561.56683	963.27258	-1118.17383	546.07007	978.94745	-936.12714	717.44177	986.07001	-1102.65869	700.09381	998.84515	-845.68231	618.29321	639.57721	-859.29572	599.93805	477.74704	-877.73364	791.58685	326.75565	-919.26019	921.26392	217.58495	-970.84851	949.45416	236.57172	-906.75824	872.21149	79.70872	-1181.00745	573.89685	642.72803	-1153.18628	557.39673	518.91772	-1153.48914	592.50146	252.35822	-1103.12341	603.18036	67.47805	-1058.56665	642.07031	43.32944	-1102.44214	449.55701	32.62237	-1005.69702	672.43323	1704.10986																					 
43	0.420	-929.51135	575.52002	1663.35010	-1059.06372	549.02008	1657.62109	-958.43329	705.74255	1609.56641	-1084.89893	678.01825	1609.03430	-1007.76306	695.68701	1452.86731	-1013.81885	724.68585	1123.35449	-1001.90955	583.64862	1378.29175	-993.34766	540.46930	1206.34119	-1089.03015	762.33612	1280.85608	-843.40381	646.75757	1408.13806	-771.80835	637.14545	1205.69971	-760.80359	628.46454	1092.59070	-743.13306	554.47253	961.37872	-788.38684	452.18286	886.00751	-752.81091	505.04678	853.43658	-753.58258	431.71130	800.45215	-1165.73132	621.38391	1407.92236	-1256.71362	663.75067	1212.17456	-1270.36316	658.47723	1090.21045	-1285.00391	633.09308	972.71185	-1246.88293	559.59351	841.71765	-1290.40137	612.73651	837.12115	-1287.79443	568.68103	764.56500	-899.94647	551.63788	964.08185	-1119.74084	536.95557	979.33325	-937.25323	707.82275	986.65393	-1103.83008	690.88446	999.30176	-846.47223	603.50464	641.04730	-860.09149	581.83820	479.73083	-878.94458	771.95660	328.04935	-921.03052	900.61060	217.39207	-972.75787	929.22797	235.88846	-908.25714	849.38226	80.53572	-1181.53870	567.63611	642.48199	-1153.87451	552.35620	518.38049	-1153.65381	590.74890	252.25351	-1102.87610	602.91443	67.54835	-1058.38831	641.98480	43.47707	-1102.49487	449.22806	32.33632	-1006.40070	661.64386	1704.81885																					 
44	0.430	-930.20624	564.89178	1663.55493	-1059.68628	538.34625	1657.95300	-959.24457	695.34418	1610.34912	-1085.66211	667.45465	1609.91858	-1009.10382	685.70477	1453.54480	-1015.46301	715.10083	1124.06348	-1002.89960	573.98492	1378.67737	-994.57861	531.17468	1206.59766	-1090.95508	752.33862	1281.78552	-844.55194	637.65051	1408.37817	-773.67267	629.17871	1205.57080	-763.20514	621.51727	1092.28198	-744.96136	551.50812	958.83984	-788.92108	451.35535	879.92603	-754.26251	505.93390	849.25232	-753.54742	434.20071	793.89294	-1166.74109	610.70459	1408.63245	-1258.50562	651.38782	1212.78955	-1272.39197	644.76599	1090.95728	-1286.56519	617.01080	974.05072	-1247.35510	541.11835	844.86847	-1291.32043	593.71277	838.99121	-1288.38318	547.75220	767.69019	-901.51544	541.71777	964.89484	-1121.44910	528.11578	979.59491	-938.38715	698.16028	987.32147	-1105.05090	681.82416	999.64728	-847.48700	588.60693	642.47809	-861.14368	563.72742	481.64893	-880.18817	751.85651	328.07175	-922.65338	879.39111	216.05167	-974.25024	908.47101	233.92857	-909.68195	824.96588	80.81785	-1182.37097	561.28314	642.12781	-1154.60242	547.73114	517.81403	-1153.38049	589.53967	252.16928	-1102.60901	602.77765	67.68869	-1058.12451	641.90332	43.61456	-1102.50891	448.97058	32.08876	-1007.10046	650.80927	1705.53894																					 
45	0.440	-930.78876	554.26904	1663.77649	-1060.31323	527.67090	1658.31433	-960.00861	684.96021	1611.14978	-1086.37805	656.95679	1610.78491	-1010.36188	675.79236	1454.11267	-1017.06628	705.51636	1124.64026	-1003.79889	564.29773	1379.05603	-995.71722	521.78638	1206.89111	-1092.83142	742.39697	1282.79053	-845.68024	628.54529	1408.67554	-775.45856	621.35388	1205.59058	-765.61328	614.79730	1092.12524	-746.72424	548.94415	956.57294	-789.36603	451.12488	874.03741	-755.50208	507.33432	845.34808	-753.43121	437.46982	787.77789	-1167.67761	600.16132	1409.41284	-1260.28735	638.93011	1213.53967	-1274.30310	630.92944	1091.80273	-1288.10364	600.92639	975.55042	-1247.68921	523.06281	848.18341	-1292.29175	574.43622	841.08783	-1288.85962	527.07776	770.99139	-903.28101	532.07166	965.61035	-1123.17676	519.03296	979.81830	-939.55743	688.47406	988.03717	-1106.30225	672.70337	999.94403	-848.20911	573.77051	643.99323	-862.13690	545.79053	483.65039	-881.34613	731.58984	327.31308	-924.12317	857.55560	213.61043	-975.69690	887.35986	230.67899	-911.17438	798.96967	80.49995	-1182.88599	555.49811	641.75586	-1155.34973	543.28204	517.27020	-1153.17883	588.28162	252.13831	-1102.30615	602.65942	67.83248	-1057.86279	641.88385	43.80404	-1102.50366	448.90475	32.00566	-1007.65631	639.96521	1706.19861																					 
46	0.450	-931.28735	543.74524	1663.93506	-1060.78040	517.00391	1658.48071	-960.72882	674.58984	1611.95715	-1086.97021	646.45001	1611.57080	-1011.54504	665.97833	1454.66760	-1018.62067	695.98151	1125.21240	-1004.62408	554.67065	1379.42200	-996.87909	512.41852	1207.18494	-1094.52490	732.42542	1283.71008	-846.71021	619.55109	1409.01062	-777.12061	613.61249	1205.61902	-767.85724	608.28668	1092.01770	-748.39160	546.56018	954.46075	-789.69672	451.25528	868.44580	-756.74420	508.90344	841.76202	-753.25751	441.19058	782.02606	-1168.50330	589.76978	1410.20081	-1261.81055	626.48248	1214.20996	-1276.08765	617.15729	1092.72144	-1289.48120	584.83075	977.20575	-1248.05017	504.66428	851.64203	-1292.91870	554.94464	843.14044	-1289.32800	506.45905	774.44366	-905.28491	522.63330	966.34064	-1124.86121	510.08890	979.89325	-940.69904	678.76715	988.75220	-1107.48071	663.51465	1000.09332	-848.92792	559.21313	645.42865	-863.32672	528.19696	485.60754	-882.39691	711.07288	325.94534	-925.38434	834.92529	210.04836	-977.04059	865.63977	226.19563	-912.46210	771.43860	79.70871	-1183.23682	550.04547	641.39429	-1156.16309	538.87274	516.70599	-1153.20459	586.82587	252.04927	-1102.20618	602.44952	67.88720	-1057.63184	641.82526	43.92968	-1102.55579	448.85843	31.88658	-1008.17389	629.14557	1706.85022																					 
